<svg version="1.1" id="Layer_1" xmlns="http://www.w3.org/2000/svg" xmlns:xlink="http://www.w3.org/1999/xlink" x="0px" y="0px" viewBox="0 0 500 500" style="width: 166px;" xml:space="preserve" data-imageid="presentation-5-52" imageName="Presentation 5" class="illustrations_image">
<style type="text/css">
	.st0_presentation-5-52{fill:#D1D3D4;}
	.st1_presentation-5-52{fill:#FFFFFF;}
	.st2_presentation-5-52{fill:#231F20;}
	.st3_presentation-5-52{fill:#68E1FD;}
	.st4_presentation-5-52{fill:none;}
</style>
<g id="Background_presentation-5-52">
	<path class="st0_presentation-5-52" d="M24.3,396.3c-0.4,0-0.8-0.3-0.8-0.7c0-0.4,0.3-0.8,0.7-0.8l0,0l461.1-36.3c0.4,0,0.8,0.3,0.8,0.7&#10;&#9;&#9;s-0.3,0.8-0.7,0.8L24.3,396.3L24.3,396.3z"/>
	<path class="st1_presentation-5-52" d="M389.8,172.6l61.8,2.3v-36.1l-61.8-8L389.8,172.6z"/>
	<path class="st0_presentation-5-52" d="M451.6,175.6L451.6,175.6l-61.8-2.3c-0.4,0-0.7-0.3-0.7-0.8v-41.8c0-0.2,0.1-0.4,0.3-0.6&#10;&#9;&#9;c0.2-0.1,0.4-0.2,0.6-0.2l61.8,8c0.4,0,0.7,0.4,0.7,0.7v36.1c0,0.2-0.1,0.4-0.2,0.5C452,175.6,451.8,175.6,451.6,175.6z&#10;&#9;&#9; M390.5,171.8l60.3,2.2v-34.7l-60.3-7.8V171.8z"/>
</g>
<g id="Screen_presentation-5-52">
	<polygon class="st1_presentation-5-52" points="366.2,343.9 55.7,363.6 55.7,118.9 366.2,138.6 &#9;"/>
	<path class="st2_presentation-5-52" d="M55.7,364.3c-0.4,0-0.7-0.3-0.8-0.8V118.9c0-0.2,0.1-0.4,0.2-0.6c0.2-0.1,0.4-0.2,0.6-0.2l310.6,19.6&#10;&#9;&#9;c0.4,0,0.7,0.4,0.7,0.8v205.3c0,0.4-0.3,0.7-0.7,0.8L55.7,364.3L55.7,364.3z M56.4,119.7v243l309.1-19.5V139.3L56.4,119.7z&#10;&#9;&#9; M366.2,343.9L366.2,343.9z"/>
	<path class="st0_presentation-5-52" d="M350.8,211.9L350.8,211.9l-30.4-1.3c-0.4,0-0.7-0.4-0.7-0.8c0-0.4,0.4-0.7,0.8-0.7c0,0,0,0,0,0l30.4,1.3&#10;&#9;&#9;c0.4,0,0.7,0.4,0.7,0.8c0,0,0,0,0,0C351.6,211.6,351.3,211.9,350.8,211.9C350.8,211.9,350.8,211.9,350.8,211.9z"/>
	<path class="st0_presentation-5-52" d="M350.8,217.1L350.8,217.1l-30.4-1.3c-0.4,0-0.7-0.4-0.7-0.8c0,0,0,0,0,0c0-0.4,0.4-0.7,0.8-0.7c0,0,0,0,0,0&#10;&#9;&#9;l30.4,1.3c0.4,0,0.8,0.3,0.8,0.8S351.3,217.1,350.8,217.1L350.8,217.1z"/>
	<path class="st0_presentation-5-52" d="M350.8,222.7L350.8,222.7l-30.4-1.3c-0.4,0-0.7-0.4-0.7-0.8s0.4-0.7,0.8-0.7l30.4,1.3c0.4,0,0.7,0.4,0.7,0.8&#10;&#9;&#9;C351.6,222.3,351.3,222.7,350.8,222.7C350.8,222.7,350.8,222.7,350.8,222.7z"/>
	<path class="st0_presentation-5-52" d="M230.8,161.1c25.1,1.1,45.1,21.4,45.1,45.2s-19.9,43.2-45.1,43.3c-25.9,0.1-47.5-20.2-47.5-45.2&#10;&#9;&#9;S204.9,159.9,230.8,161.1z M230.8,178.4c-15.7-0.6-28.6,11.3-28.6,26.4s13,27.4,28.6,27.5c15.4,0.1,27.7-11.8,27.7-26.4&#10;&#9;&#9;S246.2,179,230.8,178.4z"/>
	<path class="st3_presentation-5-52 targetColor" d="M275.9,206.3c0,23.7-19.8,43.1-44.9,43.3v-17.3c15.3,0,27.5-11.8,27.5-26.4L275.9,206.3z" style="fill: rgb(104, 225, 253);"/>
	<polygon class="st0_presentation-5-52" points="197.5,339.4 188.6,339.9 188.6,276.9 197.5,276.7 &#9;"/>
	<polygon class="st3_presentation-5-52 targetColor" points="197.5,339.4 188.6,339.9 188.6,312.9 197.5,312.5 &#9;" style="fill: rgb(104, 225, 253);"/>
	<polygon class="st0_presentation-5-52" points="214.9,338.4 206.3,338.9 206.3,276.5 214.9,276.4 &#9;"/>
	<polygon class="st3_presentation-5-52 targetColor" points="214.9,338.4 206.3,338.9 206.3,301.3 214.9,301 &#9;" style="fill: rgb(104, 225, 253);"/>
	<polygon class="st0_presentation-5-52" points="232.1,337.5 223.6,337.9 223.6,276.2 232.1,276 &#9;"/>
	<polygon class="st3_presentation-5-52 targetColor" points="232.1,337.5 223.6,337.9 223.6,314.6 232.1,314.2 &#9;" style="fill: rgb(104, 225, 253);"/>
	<polygon class="st0_presentation-5-52" points="248.9,336.5 240.5,337 240.5,275.9 248.9,275.7 &#9;"/>
	<polygon class="st3_presentation-5-52 targetColor" points="248.9,336.5 240.5,337 240.5,307.7 248.9,307.4 &#9;" style="fill: rgb(104, 225, 253);"/>
	<polygon class="st0_presentation-5-52" points="265.3,335.6 257.1,336.1 257.1,275.5 265.3,275.4 &#9;"/>
	<polygon class="st3_presentation-5-52 targetColor" points="265.3,335.6 257.1,336.1 257.1,299.7 265.3,299.5 &#9;" style="fill: rgb(104, 225, 253);"/>
	<polygon class="st0_presentation-5-52" points="281.5,334.8 273.4,335.2 273.4,275.2 281.5,275.1 &#9;"/>
	<polygon class="st3_presentation-5-52 targetColor" points="281.5,334.8 273.4,335.2 273.4,284.7 281.5,284.5 &#9;" style="fill: rgb(104, 225, 253);"/>
	<path class="st0_presentation-5-52" d="M311.4,173.5c0,5.2-4.1,9.4-9.3,9.4c-0.2,0-0.3,0-0.5,0c-5.5-0.2-9.8-4.7-9.9-10.2c0-5.2,4.1-9.4,9.3-9.4&#10;&#9;&#9;c0.2,0,0.4,0,0.6,0C307,163.5,311.3,168,311.4,173.5z"/>
	<path class="st3_presentation-5-52 targetColor" d="M311.4,213.6c0,5.3-4.3,9.6-9.6,9.7c-0.1,0-0.1,0-0.2,0c-5.5-0.1-9.9-4.5-9.9-10c0-5.3,4.3-9.6,9.6-9.7&#10;&#9;&#9;c0.1,0,0.2,0,0.3,0C307,203.8,311.4,208.2,311.4,213.6z" style="fill: rgb(104, 225, 253);"/>
	<path class="st2_presentation-5-52" d="M166.4,356.3c-0.4,0-0.8-0.3-0.8-0.8V127.8c0-0.4,0.3-0.8,0.8-0.8s0.8,0.3,0.8,0.8v227.7&#10;&#9;&#9;C167.1,355.9,166.8,356.3,166.4,356.3z"/>
	<path class="st0_presentation-5-52" d="M234.8,151.8l-41.8-2.1c-1.3,0-2.3-1.1-2.4-2.3l0,0c0-1.2,1-2.1,2.2-2.1c0.1,0,0.1,0,0.2,0l41.8,2.2&#10;&#9;&#9;c1.2,0.1,2.2,1,2.2,2.3l0,0c0,1.1-1,2.1-2.1,2C234.9,151.8,234.8,151.8,234.8,151.8z"/>
	<path class="st0_presentation-5-52" d="M149.1,147.4l-46-2.3c-1.4,0-2.5-1.1-2.6-2.4l0,0c0.1-1.3,1.2-2.3,2.4-2.2c0.1,0,0.1,0,0.2,0l46,2.5&#10;&#9;&#9;c1.3,0,2.4,1.1,2.5,2.4l0,0c0,1.2-1.1,2.2-2.3,2.1C149.3,147.4,149.2,147.4,149.1,147.4z"/>
	<path class="st0_presentation-5-52" d="M91.2,170.7l-13-0.5c-0.5,0-0.8-0.3-0.9-0.8v-6.3c0-0.4,0.4-0.8,0.8-0.7c0,0,0,0,0,0l13,0.5&#10;&#9;&#9;c0.5,0,0.8,0.3,0.9,0.8v6.2C92,170.4,91.6,170.8,91.2,170.7C91.2,170.7,91.2,170.7,91.2,170.7z"/>
	<path class="st3_presentation-5-52 targetColor" d="M127.5,187.5L79,186.1c-0.9,0-1.6-0.6-1.7-1.5v-4.9c0.1-0.8,0.8-1.5,1.6-1.4c0,0,0,0,0.1,0l48.5,1.6&#10;&#9;&#9;c0.8,0,1.5,0.6,1.6,1.5v4.8C129,187,128.4,187.6,127.5,187.5C127.5,187.5,127.5,187.5,127.5,187.5z" style="fill: rgb(104, 225, 253);"/>
	<path class="st0_presentation-5-52" d="M101.9,202.5L78.5,202c-0.6,0-1.1-0.4-1.2-1v-5.8c0-0.6,0.5-1,1.1-1c0,0,0,0,0,0l23.5,0.6c0.6,0,1.1,0.4,1.1,1&#10;&#9;&#9;v5.7C103,202.1,102.5,202.5,101.9,202.5C101.9,202.5,101.9,202.5,101.9,202.5z"/>
	<path class="st0_presentation-5-52" d="M128.7,237.9L79,237.9c-0.9,0-1.6-0.6-1.7-1.5v-4.9c0.1-0.9,0.8-1.5,1.7-1.5l49.7,0.3c0.8,0,1.5,0.6,1.6,1.4&#10;&#9;&#9;v4.7C130.3,237.3,129.6,238,128.7,237.9C128.7,237.9,128.7,237.9,128.7,237.9z"/>
	<path class="st3_presentation-5-52 targetColor" d="M149.5,253.2l-70.2,0.5c-1,0.1-1.9-0.7-2-1.7c0,0,0,0,0,0v-4.3c0.1-1,1-1.8,2-1.8l70.2-0.2&#10;&#9;&#9;c1,0,1.8,0.7,1.8,1.7c0,0,0,0,0,0v4.1C151.3,252.5,150.5,253.3,149.5,253.2z" style="fill: rgb(104, 225, 253);"/>
	<path class="st0_presentation-5-52" d="M96.5,269.3l-18.1,0.3c-0.5,0-0.9-0.4-1-0.9v-6c0-0.5,0.5-0.9,1-0.9l18.1-0.2c0.5,0,1,0.3,1,0.9c0,0,0,0,0,0&#10;&#9;&#9;v5.9C97.4,268.9,97,269.3,96.5,269.3z"/>
	<path class="st0_presentation-5-52" d="M101.8,304.6l-23.3,0.8c-0.6,0.1-1.1-0.4-1.2-1c0,0,0,0,0,0v-5.8c0-0.6,0.6-1.1,1.2-1l23.3-0.7&#10;&#9;&#9;c0.5-0.1,1,0.3,1.1,0.9c0,0,0,0.1,0,0.1v5.7C102.9,304.2,102.4,304.7,101.8,304.6z"/>
	<path class="st0_presentation-5-52" d="M141.2,318.7l-62.1,2.6c-0.9,0.1-1.7-0.5-1.9-1.5c0,0,0-0.1,0-0.1v-4.5c0.1-1,0.9-1.7,1.9-1.7l62.1-2.4&#10;&#9;&#9;c0.9-0.1,1.7,0.6,1.7,1.5c0,0,0,0,0,0.1v4.4C142.9,317.9,142.2,318.7,141.2,318.7z"/>
	<path class="st3_presentation-5-52 targetColor" d="M148.5,333.6l-69.2,3.5c-1,0.1-1.9-0.5-2-1.5c0,0,0-0.1,0-0.1v-4.3c0.1-1,1-1.8,2-1.8l69.2-3.2&#10;&#9;&#9;c0.9-0.1,1.7,0.6,1.8,1.5c0,0,0,0.1,0,0.1v4.2C150.3,332.8,149.5,333.6,148.5,333.6z" style="fill: rgb(104, 225, 253);"/>
	<path class="st0_presentation-5-52" d="M350.8,170.3L350.8,170.3l-30.4-1.3c-0.4,0-0.7-0.4-0.7-0.8c0-0.4,0.4-0.7,0.8-0.7c0,0,0,0,0,0l30.4,1.3&#10;&#9;&#9;c0.4,0,0.7,0.4,0.7,0.8C351.6,170,351.3,170.3,350.8,170.3C350.8,170.3,350.8,170.3,350.8,170.3z"/>
	<path class="st0_presentation-5-52" d="M350.8,175.5L350.8,175.5l-30.4-1.4c-0.4,0-0.8-0.3-0.8-0.7c0-0.4,0.3-0.8,0.7-0.8c0.1,0,0.1,0,0.2,0l30.3,1.3&#10;&#9;&#9;c0.4,0,0.8,0.3,0.8,0.8S351.3,175.5,350.8,175.5L350.8,175.5z"/>
	<path class="st0_presentation-5-52" d="M350.8,181.1L350.8,181.1l-30.4-1.3c-0.4,0-0.7-0.4-0.7-0.8c0-0.4,0.3-0.7,0.7-0.7c0,0,0,0,0,0l30.4,1.3&#10;&#9;&#9;c0.4,0,0.8,0.3,0.8,0.8S351.3,181.1,350.8,181.1L350.8,181.1z"/>
	<line class="st4_presentation-5-52" x1="285.6" y1="174.5" x2="262.5" y2="186"/>
	<path class="st2_presentation-5-52" d="M262.5,186.8c-0.3,0-0.5-0.2-0.7-0.4c-0.2-0.4,0-0.8,0.3-1c0,0,0,0,0,0l23.1-11.5c0.4-0.2,0.8,0,1,0.3&#10;&#9;&#9;c0.2,0.4,0,0.8-0.3,1l-23.1,11.5C262.7,186.8,262.6,186.8,262.5,186.8z"/>
	<path class="st2_presentation-5-52" d="M287.2,217.7H262c-0.4,0-0.8-0.3-0.8-0.8s0.3-0.8,0.8-0.8h25.2c0.4,0,0.8,0.3,0.8,0.8S287.6,217.7,287.2,217.7&#10;&#9;&#9;L287.2,217.7z"/>
	<path class="st0_presentation-5-52" d="M294.1,303.7c-0.4,0-0.7-0.3-0.8-0.7c0-0.4,0.3-0.8,0.7-0.8c0,0,0,0,0,0l65.1-2.2c0.4,0,0.7,0.3,0.8,0.7&#10;&#9;&#9;c0,0,0,0,0,0.1c0,0.4-0.3,0.8-0.7,0.8L294.1,303.7L294.1,303.7z"/>
	<path class="st0_presentation-5-52" d="M300,313.4c-0.4,0-0.8-0.3-0.8-0.8s0.3-0.8,0.8-0.8l59.1-2.4c0.4,0,0.8,0.3,0.8,0.7c0,0,0,0,0,0&#10;&#9;&#9;c0,0.4-0.3,0.8-0.7,0.8L300,313.4L300,313.4z"/>
	<path class="st0_presentation-5-52" d="M297.5,323.2c-0.4,0-0.8-0.3-0.8-0.8s0.3-0.8,0.8-0.8l61.7-2.8c0.4,0,0.8,0.3,0.8,0.7c0,0,0,0,0,0&#10;&#9;&#9;c0,0.4-0.3,0.8-0.7,0.8c0,0,0,0,0,0L297.5,323.2L297.5,323.2z"/>
	<path class="st3_presentation-5-52 targetColor" d="M294.5,333c-0.4,0-0.7-0.3-0.7-0.7c0-0.4,0.3-0.8,0.7-0.8c0,0,0,0,0,0l64.7-3.2c0.4,0,0.8,0.3,0.8,0.7&#10;&#9;&#9;c0,0,0,0,0,0c0,0.4-0.3,0.8-0.7,0.8c0,0,0,0,0,0L294.5,333L294.5,333z" style="fill: rgb(104, 225, 253);"/>
</g>
<g id="Character_presentation-5-52">
	<path class="st1_presentation-5-52" d="M438.3,179.3c0.7,3.6,1,7.2,1,10.9c0,2.2,0.7,7.4-1.6,8.5c-3.1,1.4-7.4,1.6-10.7,1.9c-3.5,0.3-7,0.5-10.5,0.4&#10;&#9;&#9;c-3.7,0-18.9-0.5-20-1.2c1.1-5.9,1.8-12.1,3.1-18s3.9-12,9.1-15.3c2.3-1.4,5.2-2.2,7.7-1.1c6.9-3.1,15-0.8,19.1,5.5&#10;&#9;&#9;C437,173.5,437.9,176.3,438.3,179.3z"/>
	<path class="st2_presentation-5-52" d="M417.3,201.8h-0.9c-0.2,0-18.8-0.3-20.4-1.3c-0.2-0.2-0.4-0.5-0.3-0.8c0.4-2.3,0.8-4.6,1.1-6.9&#10;&#9;&#9;c0.6-3.6,1.2-7.4,1.9-11.1c1.6-7.4,4.8-12.9,9.4-15.8c2.8-1.7,5.8-2.2,8.1-1.3c7.2-3.1,15.5-0.6,19.8,5.9c1.5,2.7,2.5,5.6,2.9,8.7&#10;&#9;&#9;l0,0c0.7,3.6,1,7.3,1,11c0,0.4,0,0.8,0,1.3c0.1,2.9,0.3,6.8-2.1,7.9c-2.8,1.2-6.4,1.6-9.5,1.8l-1.5,0.1&#10;&#9;&#9;C423.8,201.6,420.5,201.8,417.3,201.8z M397.3,199.3c2.6,0.5,14.4,0.9,19.1,1c3.5,0,7-0.1,10.4-0.4l1.5-0.1c3-0.3,6.5-0.6,9-1.7&#10;&#9;&#9;c1.5-0.7,1.3-4.3,1.2-6.4c0-0.5,0-1,0-1.4c0-3.6-0.3-7.2-1-10.8l0,0c-0.4-2.9-1.3-5.6-2.8-8.1c-3.9-6-11.7-8.3-18.2-5.3&#10;&#9;&#9;c-0.2,0.1-0.4,0.1-0.6,0c-1.9-0.9-4.6-0.5-7,1.1c-5.3,3.4-7.7,9.9-8.7,14.8c-0.8,3.6-1.4,7.4-1.9,11&#10;&#9;&#9;C398,195.1,397.7,197.2,397.3,199.3L397.3,199.3z"/>
	<path class="st1_presentation-5-52" d="M432.2,351.8l-1.5,62.6c0,0-30.8,4.1-31.5,3s17.1-10.7,17.1-10.7l-0.6-51.6"/>
	<path class="st2_presentation-5-52" d="M401.1,418.2c-2.2,0-2.4-0.3-2.5-0.5c-0.1-0.2-0.2-0.5-0.1-0.7c0.4-1.6,10.7-7.4,17.1-10.9l-0.6-51.2&#10;&#9;&#9;c0-0.4,0.3-0.8,0.8-0.8l0,0c0.4,0,0.7,0.3,0.8,0.7l0.6,51.6c0,0.3-0.2,0.5-0.4,0.7c-6.7,3.6-13.8,7.8-16.1,9.5&#10;&#9;&#9;c4.2,0,19.4-1.8,29.4-3.1l1.5-62c0-0.4,0.4-0.7,0.8-0.7c0.4,0,0.7,0.3,0.7,0.8l-1.5,62.6c0,0.4-0.3,0.7-0.6,0.7&#10;&#9;&#9;C412.2,417.6,404.4,418.2,401.1,418.2z"/>
	<path class="st2_presentation-5-52" d="M410,407.9l5.7,5l16.2-2.4l0.1,6.4c0,0-35.8,5.1-37.4,2.1S410,407.9,410,407.9z"/>
	<path class="st1_presentation-5-52" d="M409.7,346.8l-0.9,59.1c0,0-30.6,5.2-31.4,4.1s16.7-11.4,16.7-11.4l-4-54.1"/>
	<path class="st2_presentation-5-52" d="M378.7,410.8c-1.5,0-1.7-0.2-1.8-0.4c-0.2-0.2-0.2-0.5-0.1-0.7c0.3-1.6,10.4-7.8,16.7-11.5l-4-53.6&#10;&#9;&#9;c0-0.4,0.3-0.8,0.7-0.8c0.4,0,0.8,0.3,0.8,0.7c0,0,0,0,0,0l4,54.1c0,0.3-0.1,0.6-0.4,0.7c-6.5,3.8-13.5,8.3-15.8,10.1&#10;&#9;&#9;c4.2-0.1,19.3-2.5,29.3-4.1l0.9-58.4c0-0.4,0.3-0.7,0.8-0.7l0,0c0.4,0,0.7,0.4,0.7,0.8c0,0,0,0,0,0l-0.9,59.1&#10;&#9;&#9;c0,0.4-0.3,0.7-0.6,0.7C388.9,410,381.5,410.8,378.7,410.8z"/>
	<path class="st2_presentation-5-52" d="M387.9,400.1l5.9,4.8l16.1-3l0.3,6.4c0,0-35.6,6.4-37.3,3.5S387.9,400.1,387.9,400.1z"/>
	<path class="st2_presentation-5-52" d="M436,267.2c0,0.6,4.2,8.8,3.9,20.7c-0.9,35.4-6.9,103.9-6.9,103.9l-42.2-4.7c0,0-24-73.8-2.5-123.8L436,267.2z&#10;&#9;&#9;"/>
	<polygon class="st1_presentation-5-52" points="393.3,267.5 401.1,204.5 430.5,206.9 427.1,270.4 &#9;"/>
	<path class="st2_presentation-5-52" d="M427.1,271.2L427.1,271.2l-33.9-2.9c-0.2,0-0.4-0.1-0.5-0.3c-0.1-0.2-0.2-0.4-0.2-0.6l7.8-63&#10;&#9;&#9;c0.1-0.4,0.4-0.7,0.8-0.6l29.4,2.3c0.4,0,0.7,0.4,0.7,0.8l-3.4,63.5c0,0.2-0.1,0.4-0.2,0.5C427.5,271.1,427.3,271.2,427.1,271.2z&#10;&#9;&#9; M394.1,266.9l32.3,2.7l3.3-62l-28-2.2L394.1,266.9z"/>
	<path class="st2_presentation-5-52" d="M335.7,234l27.8-2.8c1.3-0.1,2.3-1.3,2.2-2.6c0-0.1,0-0.3-0.1-0.4l-9.5-33.2c-0.3-1.2-1.6-1.9-2.8-1.7l-28,5.5&#10;&#9;&#9;c-1.3,0.3-2.2,1.5-1.9,2.8c0,0.1,0,0.2,0.1,0.3l9.7,30.5C333.5,233.4,334.6,234.1,335.7,234z"/>
	<path class="st3_presentation-5-52 targetColor" d="M455.2,232l-18,5.2l2.2,35.2l-20.1,2.1l4.2-64.9l-16.7-0.6c0,0.6-7.4,47.8-9.1,61.7l-18.8-3.7l9-32.5&#10;&#9;&#9;l-11.2-5.8c0,0,6.9-27.6,30.1-26.3c21.4,1.2,13.9,1.2,13.5,1.2c0.4,0,17,0.1,24.5,10.2C452.4,224.2,455.2,232,455.2,232z" style="fill: rgb(104, 225, 253);"/>
	<path class="st1_presentation-5-52" d="M409.2,199.5l-1.9,10.4c0,0-0.1,6,6.6,5.5c4-0.3,7.6-2.5,9.9-5.8c0,0,4.2-25.5,4.5-27.4&#10;&#9;&#9;c-1.1,0.3-4.4,0.9-5.4,0.2s-0.6-4.2-0.5-5.4c-1.2,1.3-2.2,2.9-2.9,4.6l-4.3-0.7c-0.3-1.6-0.2-3.3,0.2-4.9c-1.2,1.2-2.1,2.7-2.6,4.3&#10;&#9;&#9;c-1.2-0.2-5.6-1.8-6.6-1c-1.4,1.2-4,11.2-1.9,15.2S409.2,199.5,409.2,199.5z"/>
	<path class="st2_presentation-5-52" d="M413.1,216.2c-1.7,0.1-3.4-0.5-4.6-1.6c-1.2-1.3-1.9-2.9-1.9-4.7c0,0,0-0.1,0-0.1c1.2-6.4,1.6-8.8,1.8-9.8&#10;&#9;&#9;c-2.1-1.1-3.7-2.8-4.7-4.9c-2.2-4.3,0.4-14.7,2.1-16.1c0.9-0.9,3.1-0.3,5.9,0.4l0.7,0.2c0.6-1.5,1.5-2.8,2.6-3.9&#10;&#9;&#9;c0.2-0.2,0.6-0.3,0.9-0.1c0.3,0.2,0.4,0.5,0.4,0.8c-0.3,1.3-0.4,2.7-0.3,4.1l3.2,0.5c0.7-1.6,1.6-3,2.8-4.2c0.3-0.3,0.8-0.3,1.1,0&#10;&#9;&#9;c0.2,0.2,0.2,0.4,0.2,0.6v0.5c-0.3,3.3,0,4,0.2,4.2c0.6,0.4,3,0.1,4.8-0.3c0.2-0.1,0.5,0,0.7,0.2c0.2,0.2,0.3,0.4,0.2,0.7&#10;&#9;&#9;c-0.3,1.9-4.3,26.3-4.5,27.4c0,0.1,0,0.2-0.1,0.3c-2.4,3.5-6.2,5.8-10.5,6.1L413.1,216.2z M408,209.9c0,1.3,0.6,2.6,1.5,3.5&#10;&#9;&#9;c1.2,1,2.8,1.4,4.3,1.2c3.7-0.3,7.1-2.3,9.3-5.3c0.3-1.9,3.5-21.1,4.3-26.1c-1.4,0.3-3.8,0.6-4.9-0.1c-0.9-0.6-1-2-1-3.6&#10;&#9;&#9;c-0.5,0.8-0.9,1.6-1.2,2.5c-0.1,0.3-0.5,0.5-0.8,0.5l-4.4-0.7c-0.3,0-0.6-0.3-0.6-0.6c-0.1-0.8-0.2-1.6-0.2-2.4&#10;&#9;&#9;c-0.3,0.6-0.6,1.2-0.8,1.8c-0.1,0.4-0.5,0.6-0.9,0.5c-0.3-0.1-0.8-0.2-1.5-0.4c-1.1-0.3-3.9-1.1-4.5-0.8c-1.1,1-3.7,10.6-1.7,14.3&#10;&#9;&#9;s4.4,4.4,4.5,4.4c0.4,0.1,0.6,0.5,0.5,0.9C409.9,199.8,408.2,209,408,209.9z"/>
	<path class="st1_presentation-5-52" d="M425.5,189.3c0.3-0.7,0.9-1.4,1.6-1.8c0.7-0.3,1.4-0.6,2.1-0.7c0.4-0.1,0.8-0.1,1.2,0c0.3,0.1,0.5,0.2,0.8,0.4&#10;&#9;&#9;c0.6,0.4,1,1,1.1,1.6c0.1,0.5,0,1.1-0.2,1.6c-0.2,0.6-0.4,1.1-0.7,1.6c-1.3,2.1-4.1,2.7-6.2,1.4c0,0,0,0,0,0"/>
	<path class="st2_presentation-5-52" d="M427.6,195c-1,0-2-0.3-2.9-0.9c-0.3-0.2-0.4-0.7-0.2-1c0.2-0.3,0.7-0.4,1-0.2c0.8,0.5,1.9,0.7,2.8,0.5&#10;&#9;&#9;c1-0.2,1.8-0.8,2.4-1.7c0.3-0.5,0.5-0.9,0.6-1.4c0.2-0.4,0.2-0.8,0.2-1.3c-0.1-0.5-0.4-0.9-0.9-1.2c-0.1-0.1-0.3-0.2-0.5-0.3&#10;&#9;&#9;c-0.3-0.1-0.6-0.1-0.9,0c-0.7,0.1-1.3,0.3-1.9,0.6c-0.6,0.3-1,0.8-1.2,1.4c-0.2,0.4-0.6,0.6-1,0.4c-0.4-0.2-0.6-0.6-0.4-1&#10;&#9;&#9;c0.4-0.9,1-1.6,1.9-2.1c0.7-0.4,1.5-0.6,2.4-0.8c0.5-0.1,1-0.1,1.6,0c0.4,0.1,0.7,0.3,1,0.6c0.7,0.5,1.2,1.3,1.4,2.1&#10;&#9;&#9;c0.1,0.7,0,1.4-0.2,2c-0.2,0.6-0.5,1.3-0.8,1.8c-0.8,1.2-1.9,2-3.3,2.3C428.3,195,427.9,195,427.6,195z"/>
	<path class="st2_presentation-5-52" d="M408.6,203.6c0,0,4,2,7.3-0.2c1.9-1.1,3.1-3,3.5-5.2c0,0-6.1,3.1-10.2,1.5L408.6,203.6z"/>
	<path class="st2_presentation-5-52" d="M412.3,205.2c-1.4,0-2.7-0.3-4-0.9c-0.3-0.1-0.5-0.5-0.4-0.8l0.6-3.9c0-0.2,0.2-0.4,0.4-0.5&#10;&#9;&#9;c0.2-0.1,0.4-0.1,0.6,0c3.7,1.4,9.6-1.5,9.6-1.5c0.2-0.1,0.5-0.1,0.7,0c0.2,0.1,0.4,0.4,0.3,0.7c-0.3,2.4-1.7,4.5-3.8,5.8&#10;&#9;&#9;C415.2,204.8,413.8,205.2,412.3,205.2z M409.4,203.1c1.1,0.4,3.8,1.1,6.1-0.4c1.2-0.8,2.2-1.9,2.8-3.3c-2,0.8-5.5,1.9-8.5,1.2&#10;&#9;&#9;L409.4,203.1z"/>
	<path class="st1_presentation-5-52" d="M410.7,182.9c0,0-4.4,4.3-3.7,5.4s3,0.9,3,0.9"/>
	<path class="st2_presentation-5-52" d="M409.6,189.9c-0.8,0-2.6-0.1-3.3-1.3s0.7-3.1,3.9-6.3c0.3-0.3,0.8-0.3,1,0c0,0,0,0,0,0c0.3,0.3,0.3,0.8,0,1.1&#10;&#9;&#9;c-1.8,1.8-3.4,3.9-3.6,4.5c0.7,0.4,1.5,0.6,2.2,0.5c0.4,0,0.8,0.3,0.8,0.7c0,0.4-0.3,0.8-0.7,0.8l0,0L409.6,189.9z"/>
	<ellipse transform="matrix(0.4002 -0.9164 0.9164 0.4002 80.803 491.8875)" class="st2_presentation-5-52" cx="416.2" cy="184.2" rx="1.2" ry="0.8"/>
	<ellipse transform="matrix(0.4002 -0.9164 0.9164 0.4002 76.7737 482.448)" class="st2_presentation-5-52" cx="406.9" cy="182.6" rx="1.2" ry="0.8"/>
	<path class="st1_presentation-5-52" d="M405.4,190.8c0,0,2.1,5.1,8.3,1.8"/>
	<path class="st2_presentation-5-52" d="M409.8,194.5c-0.7,0-1.3-0.1-1.9-0.3c-1.4-0.5-2.6-1.6-3.3-3c-0.2-0.4,0-0.8,0.3-1c0.4-0.2,0.8,0,1,0.3&#10;&#9;&#9;c0,0,0,0.1,0,0.1c0.5,1,1.4,1.8,2.4,2.2c1.6,0.4,3.4,0.2,4.8-0.8c0.4-0.2,0.8,0,1,0.3c0.2,0.4,0,0.8-0.3,1&#10;&#9;&#9;C412.7,194.1,411.3,194.4,409.8,194.5z"/>
	<path class="st1_presentation-5-52" d="M389.6,234.7c0,0-13.5,37.8-22.9,33.3c-3.1-1.5-5.6-4.1-7.9-6.6c-2.7-3-5.2-6.2-7.5-9.6&#10;&#9;&#9;c-4.6-6.6-11.3-16.9-11.5-25.2c-0.1-2.7,2.3-5.5,5.2-4.4c2.6,1,4,5.7,5.2,7.9c0.6,1,0.6,1.6,1.8,1.9c0.4,0.1,3.9-0.1,4.1-0.4&#10;&#9;&#9;c-0.6,0.9-0.9,2-1,3.1c0,1.6,10.4,14.2,11.9,13.9s9.8-20.1,9.8-20.1"/>
	<path class="st2_presentation-5-52" d="M368.3,269.2c-0.7,0-1.3-0.1-1.9-0.4c-3.2-1.5-5.9-4.3-8.1-6.7c-2.7-3.1-5.3-6.3-7.6-9.7&#10;&#9;&#9;c-4.9-7-11.4-17.2-11.7-25.6c-0.1-1.8,0.8-3.5,2.2-4.6c1.2-0.8,2.7-1,4-0.5c2.2,0.9,3.5,3.8,4.6,6.2c0.3,0.7,0.6,1.4,1,2.1&#10;&#9;&#9;c0.1,0.2,0.2,0.4,0.3,0.6c0.3,0.6,0.4,0.8,1,1c1.1,0,2.3-0.1,3.4-0.3c0.3-0.2,0.6-0.2,0.8,0c0.3,0.2,0.4,0.7,0.2,1&#10;&#9;&#9;c-0.5,0.8-0.8,1.8-0.9,2.7c0.3,1.7,9.1,12.1,11,13.1c1.3-1.4,5.6-10.8,9.2-19.5c0.2-0.4,0.6-0.6,1-0.4c0,0,0,0,0,0&#10;&#9;&#9;c0.4,0.2,0.6,0.6,0.4,1c0,0,0,0,0,0c-5.5,13.4-9,20.3-10.3,20.5c-0.5,0.1-1.1-0.2-2-1c-4.2-3.5-10.8-12.4-10.8-13.7&#10;&#9;&#9;c0-0.7,0.1-1.4,0.4-2.1c-1,0.1-2,0.2-3,0.1c-0.9-0.2-1.6-0.9-1.9-1.8c-0.1-0.2-0.2-0.3-0.3-0.5c-0.4-0.6-0.7-1.4-1.1-2.2&#10;&#9;&#9;c-0.9-2.1-2.1-4.8-3.8-5.4c-0.9-0.4-1.8-0.3-2.6,0.3c-1,0.8-1.6,2-1.6,3.4c0.2,8.1,6.6,18,11.4,24.8c2.3,3.3,4.8,6.5,7.5,9.5&#10;&#9;&#9;c2.1,2.4,4.7,5,7.6,6.4c0.9,0.4,1.9,0.4,2.8,0c8.5-3.5,19-32.6,19.1-32.9c0.2-0.4,0.6-0.6,1-0.4c0.3,0.1,0.5,0.5,0.4,0.9&#10;&#9;&#9;c-0.4,1.2-10.8,30-20,33.8C369.6,269,369,269.2,368.3,269.2z"/>
	<path class="st1_presentation-5-52" d="M453,228.1c0,0,14.7,31.6,11.6,36.6c-4.3,6.8-9.7,13.1-14.6,19.6c-2.8,3.7-6.5,7.4-8.8,11.3&#10;&#9;&#9;c-1.9,3.3,0.8,13.2-1.5,15c-0.9,0.7-2-0.5-2.5-1.6c-1.7-4.1-3-8.3-3.9-12.6c-0.4-1.7-0.6-3.6,0.2-5.2c5.1-9.2,10.6-18.6,15.7-28.1&#10;&#9;&#9;l-11.7-26.8"/>
	<path class="st2_presentation-5-52" d="M439.1,311.5c-0.1,0-0.3,0-0.4-0.1c-1-0.4-1.8-1.2-2.2-2.2c-1.8-4.1-3.1-8.4-4-12.8c-0.4-1.9-0.6-4,0.3-5.7&#10;&#9;&#9;c2.1-3.8,4.3-7.6,6.4-11.4c3-5.4,6.2-10.9,9.1-16.4l-11.5-26.5c-0.2-0.4,0-0.8,0.4-1c0.4-0.2,0.8,0,1,0.4l11.7,26.8&#10;&#9;&#9;c0.1,0.2,0.1,0.5,0,0.7c-3,5.6-6.2,11.3-9.3,16.8c-2.1,3.7-4.3,7.6-6.4,11.3c-0.8,1.4-0.5,3.1-0.2,4.7c0.9,4.3,2.2,8.4,3.9,12.5&#10;&#9;&#9;c0.2,0.5,0.6,1,1.1,1.3c0.1,0,0.1,0,0.2,0c0.9-0.7,0.7-4,0.6-6.7c-0.2-3.1-0.3-6.4,0.7-8.1c1.7-2.6,3.6-5.2,5.7-7.5&#10;&#9;&#9;c1.1-1.3,2.2-2.6,3.2-3.9c1.3-1.7,2.6-3.4,3.9-5c3.6-4.6,7.4-9.5,10.6-14.5c2.1-3.4-6-23.8-11.6-35.9c-0.2-0.4,0-0.8,0.3-1&#10;&#9;&#9;c0.4-0.2,0.8,0,1,0.3c0,0,0,0,0,0.1c1.5,3.3,14.8,32.1,11.5,37.3c-3.3,5-6.9,9.9-10.7,14.6c-1.3,1.7-2.6,3.3-3.9,5&#10;&#9;&#9;c-1,1.3-2.1,2.6-3.2,3.9c-2,2.3-3.9,4.7-5.5,7.3c-0.8,1.4-0.7,4.5-0.5,7.3c0.2,3.6,0.3,6.8-1.2,8&#10;&#9;&#9;C439.8,311.4,439.5,311.5,439.1,311.5z"/>
	<line class="st4_presentation-5-52" x1="436" y1="234" x2="436.8" y2="219"/>
	<path class="st2_presentation-5-52" d="M436,234.7L436,234.7c-0.4,0-0.7-0.4-0.7-0.8l0.8-15c0-0.4,0.4-0.7,0.8-0.7c0.4,0,0.7,0.4,0.7,0.8l-0.8,15&#10;&#9;&#9;C436.8,234.4,436.4,234.7,436,234.7C436,234.7,436,234.7,436,234.7z"/>
	<line class="st4_presentation-5-52" x1="392.2" y1="227.2" x2="396.4" y2="217.6"/>
	<path class="st2_presentation-5-52" d="M392.2,227.9c-0.1,0-0.2,0-0.3-0.1c-0.4-0.2-0.6-0.6-0.4-1l4.2-9.6c0.2-0.4,0.6-0.6,1-0.4&#10;&#9;&#9;c0.4,0.2,0.6,0.6,0.4,1l-4.2,9.6C392.8,227.8,392.5,227.9,392.2,227.9z"/>
	<line class="st4_presentation-5-52" x1="432.3" y1="263.1" x2="425" y2="258.2"/>
	<path class="st2_presentation-5-52" d="M432.3,263.9c-0.1,0-0.3,0-0.4-0.1l-7.3-4.9c-0.3-0.2-0.4-0.7-0.2-1c0.2-0.3,0.7-0.4,1-0.2l7.3,4.9&#10;&#9;&#9;c0.3,0.2,0.4,0.7,0.2,1C432.8,263.7,432.6,263.9,432.3,263.9z"/>
	<line class="st4_presentation-5-52" x1="394.8" y1="255.8" x2="383.4" y2="260.5"/>
	<path class="st2_presentation-5-52" d="M383.4,261.3c-0.3,0-0.6-0.2-0.7-0.5c-0.2-0.4,0-0.8,0.4-1c0,0,0,0,0,0l11.5-4.7c0.4-0.2,0.8,0,1,0.4&#10;&#9;&#9;s0,0.8-0.4,1l-11.5,4.7C383.6,261.2,383.5,261.3,383.4,261.3z"/>
	<path class="st1_presentation-5-52" d="M428.9,384.7L428.9,384.7c-0.4,0-0.7-0.4-0.7-0.8l0.8-20.7c0-0.4,0.4-0.7,0.8-0.7s0.7,0.4,0.7,0.8l0,0&#10;&#9;&#9;l-0.8,20.7C429.6,384.4,429.3,384.7,428.9,384.7z"/>
</g>
</svg>